[img]http://a.imageshack.us/img651/1821/bobbyvnumber2.png[/img]

[img]http://a.imageshack.us/img844/4849/bobbyvnumber3.png[/img]

[code]
General
Complete name                    : Bobby Valention ft Plies - Phone Number [KingPinVideos].mpg
Format                           : MPEG-PS
File size                        : 79.2 MiB
Duration                         : 3mn 52s
Overall bit rate                 : 2 858 Kbps
Writing library                  : encoded by TMPGEnc 4.0 XPress Version. 4.7.4.299

Video
ID                               : 224 (0xE0)
Format                           : MPEG Video
Format version                   : Version 1
Format settings, BVOP            : Yes
Format settings, Matrix          : Default
Duration                         : 3mn 52s
Bit rate mode                    : Constant
Bit rate                         : 2 617 Kbps
Nominal bit rate                 : 2 700 Kbps
Width                            : 384 pixels
Height                           : 208 pixels
Display aspect ratio             : 16:9
Frame rate                       : 29.970 fps
Resolution                       : 8 bits
Scan type                        : Progressive
Bits/(Pixel*Frame)               : 1.093
Stream size                      : 72.5 MiB (92%)
Writing library                  : TMPGEnc XPress 4.7.4.299

Audio
ID                               : 192 (0xC0)
Format                           : MPEG Audio
Format version                   : Version 1
Format profile                   : Layer 2
Duration                         : 3mn 52s
Bit rate mode                    : Constant
Bit rate                         : 128 Kbps
Channel(s)                       : 2 channels
Sampling rate                    : 48.0 KHz
Stream size                      : 3.55 MiB (4%)[/code]